<svg width="24" height="21" viewBox="0 0 24 21" fill="none" xmlns="http://www.w3.org/2000/svg">
<path d="M23.7069 9.29297L14.7122 0.292979C14.4264 0.00796942 13.9976 -0.0790423 13.6229 0.075987C13.2491 0.229991 13.0062 0.596006 13.0062 1.00001V5.00401C7.25558 5.24 2.23854 9.12501 0.631476 14.692C-0.0641134 17.106 -0.010141 19.067 0.00981802 19.806L0.0138196 20C0.0138196 20.45 0.31462 20.845 0.747375 20.964C0.836337 20.988 0.92525 21 1.01324 21C1.35903 21 1.68882 20.819 1.87172 20.512C5.83039 13.854 11.0753 13.665 13.0062 13.853V19C13.0062 19.4041 13.2491 19.7701 13.6229 19.9241C13.9976 20.0801 14.4264 19.9931 14.7122 19.7071L23.7069 10.7071C24.0977 10.316 24.0977 9.68394 23.7069 9.29297Z" fill="white"/>
</svg>
