<svg width="24" height="24" viewBox="0 0 24 24" fill="none" xmlns="http://www.w3.org/2000/svg">
<path d="M12 0C5.37288 0 0 5.37288 0 12C0 18.6271 5.37288 24 12 24C18.6271 24 24 18.6271 24 12C24 5.37288 18.6271 0 12 0ZM17.5385 13.8462H12C11.7552 13.8462 11.5204 13.7489 11.3473 13.5758C11.1742 13.4027 11.0769 13.1679 11.0769 12.9231V4.61538C11.0769 4.37057 11.1742 4.13578 11.3473 3.96267C11.5204 3.78956 11.7552 3.69231 12 3.69231C12.2448 3.69231 12.4796 3.78956 12.6527 3.96267C12.8258 4.13578 12.9231 4.37057 12.9231 4.61538V12H17.5385C17.7833 12 18.0181 12.0973 18.1912 12.2704C18.3643 12.4435 18.4615 12.6783 18.4615 12.9231C18.4615 13.1679 18.3643 13.4027 18.1912 13.5758C18.0181 13.7489 17.7833 13.8462 17.5385 13.8462Z" fill="white"/>
</svg>
