<svg width="18" height="18" viewBox="0 0 18 18" fill="none" xmlns="http://www.w3.org/2000/svg">
<path d="M9.83538 16.4994H6.86667C6.66983 16.4994 6.48105 16.4204 6.34187 16.2798C6.20268 16.1391 6.12449 15.9484 6.12449 15.7495V11.0997H4.64013C4.44329 11.0997 4.25451 11.0207 4.11533 10.8801C3.97614 10.7394 3.89795 10.5487 3.89795 10.3498V7.6499C3.89795 7.45099 3.97614 7.26024 4.11533 7.11959C4.25451 6.97895 4.44329 6.89993 4.64013 6.89993H6.12449V5.625C6.17651 4.48232 6.67416 3.40694 7.50863 2.63399C8.3431 1.86104 9.44649 1.4534 10.5776 1.50021H12.8041C13.0009 1.50021 13.1897 1.57922 13.3289 1.71987C13.4681 1.86051 13.5463 2.05127 13.5463 2.25017V4.95003C13.5463 5.14894 13.4681 5.33969 13.3289 5.48034C13.1897 5.62098 13.0009 5.7 12.8041 5.7H10.5776V6.89993H12.8041C12.9187 6.89906 13.0319 6.92501 13.1349 6.97575C13.238 7.0265 13.3279 7.10066 13.3978 7.19242C13.467 7.28556 13.5137 7.39369 13.5343 7.50824C13.5549 7.62279 13.5489 7.74061 13.5166 7.85239L12.7744 10.5522C12.7295 10.7145 12.6319 10.8567 12.4973 10.956C12.3626 11.0553 12.1988 11.1059 12.0322 11.0997H10.5776V15.7495C10.5776 15.9484 10.4994 16.1391 10.3602 16.2798C10.221 16.4204 10.0322 16.4994 9.83538 16.4994ZM7.60884 14.9995H9.0932V10.3498C9.0932 10.2513 9.1124 10.1537 9.1497 10.0628C9.187 9.97177 9.24166 9.8891 9.31058 9.81946C9.3795 9.74981 9.46132 9.69457 9.55136 9.65688C9.64141 9.61919 9.73792 9.5998 9.83538 9.5998H11.4979L11.8244 8.39986H9.83538C9.73792 8.39986 9.64141 8.38046 9.55136 8.34277C9.46132 8.30508 9.3795 8.24984 9.31058 8.1802C9.24166 8.11056 9.187 8.02788 9.1497 7.93689C9.1124 7.8459 9.0932 7.74838 9.0932 7.6499V5.625C9.11226 5.24034 9.27702 4.87782 9.55335 4.61255C9.82969 4.34728 10.1964 4.19959 10.5776 4.20007H12.0619V3.00013H10.5776C9.84044 2.95475 9.11533 3.2049 8.55956 3.6963C8.00379 4.18769 7.66218 4.88071 7.60884 5.625V7.6499C7.60884 7.8488 7.53065 8.03955 7.39147 8.1802C7.25228 8.32084 7.0635 8.39986 6.86667 8.39986H5.38231V9.5998H6.86667C7.0635 9.5998 7.25228 9.67881 7.39147 9.81946C7.53065 9.9601 7.60884 10.1509 7.60884 10.3498V14.9995Z" fill="#00445B"/>
</svg>
