<svg width="24" height="24" viewBox="0 0 24 24" fill="none" xmlns="http://www.w3.org/2000/svg">
<path d="M12 0C5.38315 0 0 4.35998 0 9.71917C0 11.9305 0.894753 14.0131 2.58757 15.7419C4.77944 17.9802 11.1535 23.2948 11.4237 23.5199L11.9999 24L12.5762 23.52C12.8466 23.2947 19.2226 17.9789 21.4148 15.7399C23.1061 14.0126 24 11.9307 24 9.71917C24 4.35998 18.6168 0 12 0ZM20.1552 14.9309C18.3904 16.7333 13.6511 20.7429 12 22.1297C10.3491 20.7429 5.61142 16.7346 3.84707 14.9328C2.38196 13.4366 1.60753 11.6337 1.60753 9.71917C1.60753 5.0779 6.26954 1.30199 12 1.30199C17.7304 1.30199 22.3925 5.0779 22.3924 9.71917C22.3924 11.6339 21.6188 13.4361 20.1552 14.9309Z" fill="#00445B"/>
<path d="M11.9997 3.85791C8.08294 3.85791 4.89648 6.43869 4.89648 9.61095C4.89648 12.7832 8.08302 15.364 11.9997 15.364C15.9164 15.364 19.1029 12.7832 19.1029 9.61095C19.1029 6.43875 15.9165 3.85791 11.9997 3.85791ZM11.9997 14.062C8.96933 14.062 6.50402 12.0652 6.50402 9.61095C6.50402 7.1566 8.96941 5.15989 11.9997 5.15989C15.03 5.15989 17.4953 7.15666 17.4954 9.61095C17.4954 12.0653 15.0301 14.062 11.9997 14.062Z" fill="#00445B"/>
</svg>
