<svg width="19" height="18" viewBox="0 0 19 18" fill="none" xmlns="http://www.w3.org/2000/svg">
<path d="M9.84454 5.39409C7.87023 5.39409 6.27686 7.00416 6.27686 8.99918C6.27686 10.9942 7.87023 12.6043 9.84454 12.6043C11.8189 12.6043 13.4122 10.9942 13.4122 8.99918C13.4122 7.00416 11.8189 5.39409 9.84454 5.39409ZM9.84454 11.3422C8.56776 11.3422 7.52581 10.2893 7.52581 8.99918C7.52581 7.70901 8.56776 6.65614 9.84454 6.65614C11.1213 6.65614 12.1633 7.70901 12.1633 8.99918C12.1633 10.2893 11.1213 11.3422 9.84454 11.3422ZM13.5583 4.40625C13.0974 4.40625 12.7251 4.7824 12.7251 5.2482C12.7251 5.714 13.0974 6.09015 13.5583 6.09015C14.0193 6.09015 14.3916 5.71575 14.3916 5.2482C14.3898 4.78065 14.0193 4.40625 13.5583 4.40625Z" fill="#00445B" stroke="#00445B" stroke-width="0.284783"/>
<path d="M16.7995 8.99977C16.7995 8.02951 16.8082 7.06804 16.7543 6.09953C16.7003 4.97459 16.4464 3.9762 15.6323 3.15359C14.8165 2.32922 13.8302 2.07435 12.7169 2.01986C11.7567 1.96537 10.8052 1.97416 9.84678 1.97416C8.88659 1.97416 7.93509 1.96537 6.97664 2.01986C5.86337 2.07435 4.87534 2.33097 4.06126 3.15359C3.24545 3.97796 2.99322 4.97459 2.9393 6.09953C2.88537 7.06979 2.89407 8.03127 2.89407 8.99977C2.89407 9.96828 2.88537 10.9315 2.9393 11.9C2.99322 13.025 3.24719 14.0233 4.06126 14.846C4.87708 15.6703 5.86337 15.9252 6.97664 15.9797C7.93683 16.0342 8.88833 16.0254 9.84678 16.0254C10.807 16.0254 11.7585 16.0342 12.7169 15.9797C13.8302 15.9252 14.8182 15.6686 15.6323 14.846C16.4481 14.0216 16.7003 13.025 16.7543 11.9C16.8099 10.9315 16.7995 9.97004 16.7995 8.99977ZM15.2687 13.1445C15.1418 13.4644 14.9887 13.7034 14.7434 13.9495C14.4982 14.1974 14.2633 14.352 13.9467 14.4804C13.0318 14.8477 10.8592 14.7651 9.84504 14.7651C8.83092 14.7651 6.65657 14.8477 5.7416 14.4821C5.42502 14.3538 5.18845 14.1991 4.94492 13.9513C4.69965 13.7034 4.54658 13.4661 4.4196 13.1462C4.05779 12.2199 4.13954 10.0245 4.13954 8.99977C4.13954 7.97502 4.05779 5.77787 4.4196 4.85331C4.54658 4.5334 4.69965 4.29435 4.94492 4.04827C5.19019 3.80219 5.42502 3.64575 5.7416 3.51744C6.65657 3.15183 8.83092 3.23444 9.84504 3.23444C10.8592 3.23444 13.0335 3.15183 13.9485 3.51744C14.2651 3.64575 14.5016 3.80043 14.7452 4.04827C14.9904 4.29611 15.1435 4.5334 15.2705 4.85331C15.6323 5.77787 15.5505 7.97502 15.5505 8.99977C15.5505 10.0245 15.6323 12.2199 15.2687 13.1445Z" fill="#00445B" stroke="#00445B" stroke-width="0.284783"/>
</svg>
