<svg width="18" height="22" viewBox="0 0 18 22" fill="none" xmlns="http://www.w3.org/2000/svg">
<path d="M15.5754 16.8165L12.5731 14.9867C12.4467 14.9043 12.2962 14.8575 12.137 14.8512C11.9779 14.8448 11.816 14.8791 11.6679 14.9505L10.4524 15.5754C10.3 15.6516 10.1315 15.6858 9.9675 15.6739C9.80353 15.662 9.65123 15.6044 9.52927 15.5083C7.38988 13.8647 6.0183 11.489 5.66458 8.81443C5.64231 8.66075 5.66862 8.50008 5.74028 8.35212C5.81194 8.20416 5.92585 8.07534 6.06802 7.98146L7.18541 7.18667C7.32351 7.09688 7.43713 6.97584 7.51456 6.83603C7.59199 6.69623 7.63042 6.54273 7.62587 6.39137L7.54239 2.87638L7.52796 1.97572C7.52379 1.8462 7.4886 1.72195 7.42502 1.61224C7.32317 1.43413 7.15101 1.30484 6.9423 1.2497C6.36706 1.09161 5.74749 1.07 5.13506 1.18668C4.52262 1.30337 3.93502 1.55497 3.42105 1.92058L3.16969 2.1069L3.03945 2.20407C2.97894 2.24679 2.92062 2.29237 2.86475 2.34063L2.70295 2.48897C0.565905 4.47799 0.725289 9.23026 3.13929 13.848L3.87953 15.1301C6.668 19.5233 10.7039 22.0375 13.5054 21.2206L13.7148 21.1546C13.7841 21.1305 13.8524 21.103 13.9192 21.0723L14.0691 21.0091L14.3562 20.8845C14.9295 20.622 15.4409 20.2388 15.8478 19.7667C16.2548 19.2946 16.5456 18.7473 16.696 18.1701C16.7526 17.9618 16.7267 17.7481 16.6234 17.5708C16.5602 17.4609 16.4702 17.3683 16.3601 17.2999L15.5754 16.8165Z" stroke="#00445B" stroke-width="1.06794" stroke-miterlimit="10"/>
</svg>
