<svg width="24" height="18" viewBox="0 0 24 18" fill="none" xmlns="http://www.w3.org/2000/svg">
<path d="M22.1519 0.00244141H1.8481C0.83038 0.00244141 0 0.832821 0 1.85054V16.1493C0 17.167 0.83038 17.9974 1.8481 17.9974H22.1519C23.1696 17.9974 24 17.167 24 16.1493V1.85054C24 0.832821 23.1696 0.00244141 22.1519 0.00244141ZM21.8835 1.36953L12.1266 9.71383L2.36962 1.36953H21.8835ZM22.6329 16.1493C22.6329 16.4126 22.4152 16.6303 22.1519 16.6303H1.8481C1.58481 16.6303 1.36709 16.4126 1.36709 16.1493V2.3113L11.681 11.1316C11.6861 11.1366 11.6962 11.1417 11.7013 11.1467C11.7063 11.1518 11.7165 11.1569 11.7215 11.1619C11.7367 11.1721 11.7468 11.1822 11.762 11.1873C11.7671 11.1923 11.7722 11.1923 11.7772 11.1974C11.7975 11.2075 11.8177 11.2176 11.838 11.2278C11.843 11.2278 11.8481 11.2328 11.8532 11.2328C11.8684 11.2379 11.8835 11.248 11.9038 11.2531C11.9089 11.2531 11.919 11.2581 11.9241 11.2581C11.9392 11.2632 11.9544 11.2683 11.9696 11.2683C11.9747 11.2683 11.9848 11.2733 11.9899 11.2733C12.0051 11.2784 12.0253 11.2784 12.0405 11.2835C12.0456 11.2835 12.0506 11.2835 12.0557 11.2835C12.0759 11.2835 12.1013 11.2885 12.1215 11.2885C12.1418 11.2885 12.1671 11.2885 12.1873 11.2835C12.1924 11.2835 12.1975 11.2835 12.2025 11.2835C12.2177 11.2835 12.238 11.2784 12.2532 11.2733C12.2582 11.2733 12.2684 11.2683 12.2734 11.2683C12.2886 11.2632 12.3038 11.2581 12.319 11.2581C12.3241 11.2581 12.3342 11.2531 12.3392 11.2531C12.3544 11.248 12.3696 11.2429 12.3899 11.2328C12.3949 11.2328 12.4 11.2278 12.4051 11.2278C12.4253 11.2176 12.4456 11.2075 12.4658 11.1974C12.4709 11.1923 12.4759 11.1923 12.481 11.1873C12.4962 11.1771 12.5063 11.1721 12.5215 11.1619C12.5266 11.1569 12.5367 11.1518 12.5418 11.1467C12.5468 11.1417 12.557 11.1366 12.562 11.1316L22.6329 2.52902V16.1493Z" fill="#00445B"/>
</svg>
