<svg width="16" height="15" viewBox="0 0 16 15" fill="none" xmlns="http://www.w3.org/2000/svg">
<path d="M13.9207 0.929934C13.7337 0.938723 13.5576 0.993652 13.401 1.05517H13.3989C13.2401 1.11889 12.4856 1.43967 11.3397 1.92524C10.1939 2.41301 8.7066 3.04579 7.23021 3.67418C4.28179 4.92875 1.38338 6.16355 1.38338 6.16355L1.41817 6.15037C1.41817 6.15037 1.21813 6.21628 1.00939 6.3613C0.902846 6.43161 0.785431 6.52828 0.683236 6.67988C0.581042 6.83149 0.498416 7.06439 0.528857 7.30388C0.578868 7.71035 0.83979 7.95423 1.02678 8.08826C1.21595 8.22448 1.39642 8.2882 1.39642 8.2882H1.40077L4.11871 9.2132C4.24048 9.60869 4.94714 11.9552 5.11674 12.4957C5.21676 12.8187 5.31461 13.0209 5.43637 13.1747C5.49508 13.2538 5.56466 13.3197 5.64728 13.3724C5.6799 13.3922 5.71469 13.4076 5.74948 13.4207C5.76035 13.4273 5.77122 13.4295 5.78427 13.4317L5.756 13.4251C5.7647 13.4273 5.77122 13.4339 5.77774 13.4361C5.79949 13.4427 5.81471 13.4449 5.84298 13.4493C6.2735 13.5811 6.61922 13.3109 6.61922 13.3109L6.63879 13.2955L8.24346 11.819L10.9331 13.9041L10.994 13.9305C11.555 14.1788 12.1225 14.0403 12.4226 13.7965C12.7248 13.5504 12.8422 13.2362 12.8422 13.2362L12.8618 13.1857L14.9405 2.4262C14.9992 2.16034 15.0144 1.91206 14.9492 1.67037C14.8839 1.42869 14.7165 1.20238 14.5143 1.08154C14.3099 0.958497 14.1077 0.921146 13.9207 0.929934ZM13.8642 2.08344C13.862 2.11859 13.8685 2.1142 13.8533 2.18231V2.1889L11.7942 12.8363C11.7855 12.8517 11.7703 12.8846 11.7289 12.9176C11.6855 12.9528 11.6507 12.9747 11.4702 12.9022L8.1804 10.3535L6.19305 12.1838L6.61052 9.49004C6.61052 9.49004 11.7637 4.63653 11.9855 4.4278C12.2073 4.21907 12.1334 4.17513 12.1334 4.17513C12.1486 3.92026 11.7985 4.10043 11.7985 4.10043L5.02107 8.34313L5.0189 8.33214L1.77041 7.22698V7.22478C1.76824 7.22478 1.76389 7.22258 1.76172 7.22258C1.76389 7.22258 1.77911 7.21599 1.77911 7.21599L1.79651 7.2072L1.8139 7.20061C1.8139 7.20061 4.71449 5.96581 7.66291 4.71123C9.13929 4.08285 10.6266 3.45007 11.7703 2.9623C12.914 2.47673 13.7598 2.12079 13.8076 2.10102C13.8533 2.08344 13.8315 2.08344 13.8642 2.08344Z" fill="#00445B" stroke="#00445B" stroke-width="0.284783"/>
</svg>
