<svg width="178" height="58" viewBox="0 0 178 58" fill="none" xmlns="http://www.w3.org/2000/svg">
<path d="M25.6898 20.1707H27.7201C27.8549 20.1707 27.9841 20.2252 28.0794 20.3223C28.1747 20.4194 28.2282 20.5511 28.2282 20.6884V22.7537C28.2282 22.8216 28.215 22.8889 28.1895 22.9517C28.164 23.0144 28.1265 23.0714 28.0793 23.1194C28.0321 23.1674 27.9761 23.2055 27.9145 23.2314C27.8529 23.2573 27.7868 23.2706 27.7201 23.2705H25.5443C23.6617 23.2705 22.3019 24.0364 21.4651 25.5681C21.4227 25.6462 21.4007 25.734 21.4011 25.8232V38.4009C21.4009 38.5381 21.3473 38.6696 21.252 38.7667C21.1568 38.8637 21.0277 38.9183 20.8931 38.9186H18.5559C18.4212 38.9183 18.2921 38.8637 18.1969 38.7667C18.1017 38.6696 18.0481 38.5381 18.0479 38.4009V20.6903C18.0479 20.553 18.1014 20.4213 18.1967 20.3242C18.2919 20.2271 18.4212 20.1726 18.5559 20.1726H20.5816C20.7101 20.1728 20.8338 20.2226 20.9277 20.312C21.0217 20.4014 21.0789 20.5237 21.0878 20.6544L21.0989 20.8103C21.1045 20.8997 21.1327 20.986 21.1807 21.061C21.2287 21.136 21.2948 21.1971 21.3728 21.2383C21.4508 21.2796 21.5379 21.2996 21.6257 21.2964C21.7135 21.2933 21.799 21.2671 21.8739 21.2203C22.9469 20.5212 24.2188 20.1713 25.6898 20.1707Z" fill="#00D2AB"/>
<path d="M34.5801 16.6467C34.1475 17.0876 33.5952 17.308 32.9234 17.308C32.2516 17.308 31.7025 17.0876 31.276 16.6467C31.0653 16.4314 30.8997 16.1748 30.7893 15.8924C30.6789 15.61 30.6259 15.3077 30.6335 15.0037C30.6335 14.3273 30.8477 13.7677 31.276 13.3249C31.7043 12.8821 32.2535 12.6617 32.9234 12.6636C33.5952 12.661 34.1475 12.8724 34.5801 13.2975C35.0128 13.7226 35.2291 14.2914 35.2291 15.0037C35.2367 15.3082 35.1831 15.6111 35.0715 15.8937C34.9598 16.1762 34.7926 16.4325 34.5801 16.6467ZM31.2482 38.4008V20.6903C31.2481 20.6223 31.2611 20.555 31.2865 20.4922C31.312 20.4294 31.3493 20.3723 31.3964 20.3242C31.4435 20.2762 31.4994 20.238 31.561 20.212C31.6226 20.1859 31.6886 20.1726 31.7553 20.1726H34.0897C34.1564 20.1726 34.2225 20.1859 34.2841 20.212C34.3457 20.238 34.4018 20.2761 34.4489 20.3242C34.4961 20.3723 34.5335 20.4293 34.5591 20.4922C34.5846 20.555 34.5977 20.6223 34.5977 20.6903V38.4008C34.5977 38.4688 34.5846 38.5361 34.5591 38.599C34.5335 38.6618 34.4961 38.7188 34.4489 38.7669C34.4018 38.815 34.3457 38.8531 34.2841 38.8791C34.2225 38.9052 34.1564 38.9186 34.0897 38.9186H31.7553C31.6207 38.9183 31.4917 38.8636 31.3967 38.7666C31.3016 38.6695 31.2482 38.538 31.2482 38.4008Z" fill="#00D2AB"/>
<path d="M53.0431 20.8424V23.2043C53.0429 23.3238 53.0023 23.4396 52.9281 23.5322L43.6017 35.1273C43.5409 35.2031 43.5024 35.2949 43.4907 35.392C43.479 35.4892 43.4945 35.5878 43.5356 35.6763C43.5766 35.7649 43.6415 35.8397 43.7226 35.8922C43.8037 35.9447 43.8978 35.9726 43.9939 35.9728H52.5351C52.6698 35.9728 52.799 36.0274 52.8943 36.1245C52.9896 36.2216 53.0431 36.3533 53.0431 36.4906V38.5549C53.0431 38.6229 53.03 38.6902 53.0044 38.753C52.9789 38.8158 52.9415 38.8729 52.8943 38.921C52.8471 38.969 52.7911 39.0072 52.7295 39.0332C52.6678 39.0592 52.6018 39.0726 52.5351 39.0726H39.3909C39.3242 39.0726 39.2582 39.0592 39.1966 39.0332C39.135 39.0071 39.0791 38.969 39.032 38.9209C38.9849 38.8728 38.9476 38.8157 38.9221 38.7529C38.8967 38.6901 38.8837 38.6228 38.8838 38.5549V36.159C38.8836 36.0386 38.9246 35.922 38.9997 35.8292L48.3938 24.2351C48.4564 24.1595 48.4965 24.0672 48.5092 23.9691C48.5219 23.871 48.5067 23.7713 48.4654 23.6817C48.4241 23.5922 48.3584 23.5166 48.2762 23.464C48.194 23.4113 48.0987 23.3839 48.0016 23.3848H39.3909C39.2563 23.3845 39.1273 23.3299 39.0323 23.2328C38.9372 23.1358 38.8838 23.0042 38.8838 22.8671V20.8424C38.8838 20.7053 38.9372 20.5737 39.0323 20.4767C39.1273 20.3796 39.2563 20.325 39.3909 20.3247H52.5351C52.6698 20.3247 52.799 20.3793 52.8943 20.4763C52.9896 20.5734 53.0431 20.7051 53.0431 20.8424Z" fill="#00D2AB"/>
<path d="M69.6231 20.1707H71.6626C71.7974 20.1707 71.9266 20.2253 72.0219 20.3224C72.1172 20.4194 72.1707 20.5511 72.1707 20.6884V44.8224C72.1704 44.9597 72.1168 45.0912 72.0216 45.1883C71.9264 45.2853 71.7973 45.3399 71.6626 45.3402H69.3449C69.2102 45.3402 69.081 45.2856 68.9857 45.1885C68.8904 45.0914 68.8369 44.9597 68.8369 44.8224V38.5577C68.8373 38.4642 68.8128 38.3724 68.766 38.292C68.7192 38.2116 68.6519 38.1456 68.5712 38.1011C68.4905 38.0566 68.3995 38.0352 68.3078 38.0393C68.2162 38.0433 68.1273 38.0726 68.0507 38.1241C66.8764 38.9517 65.4605 39.3702 63.8028 39.3797C61.6545 39.3797 59.9344 38.7032 58.6427 37.3503C57.3509 35.9974 56.7051 34.2023 56.7051 31.9651V27.127C56.7051 24.8892 57.3479 23.0963 58.6334 21.7485C59.919 20.4006 61.6514 19.727 63.8306 19.7276C65.6273 19.7276 67.1187 20.1883 68.3048 21.1098C68.377 21.1644 68.4622 21.1984 68.5516 21.2083C68.641 21.2181 68.7314 21.2036 68.8135 21.166C68.8955 21.1285 68.9663 21.0694 69.0185 20.9947C69.0706 20.9201 69.1024 20.8326 69.1104 20.7413L69.1197 20.6403C69.1316 20.5124 69.1897 20.3935 69.2827 20.3068C69.3757 20.22 69.497 20.1715 69.6231 20.1707ZM64.4555 36.1504C66.4048 36.1504 67.8406 35.3871 68.7627 33.8603C68.8116 33.7777 68.8373 33.6829 68.8369 33.5864V25.5398C68.8378 25.4435 68.8121 25.3489 68.7627 25.2668C68.3344 24.5655 67.7323 23.9917 67.017 23.603C66.2328 23.1629 65.3508 22.9351 64.4555 22.9417C63.1149 22.9417 62.0525 23.3322 61.2682 24.1132C60.4839 24.8942 60.0914 25.9492 60.0908 27.2782V31.813C60.0908 33.1546 60.4833 34.2127 61.2682 34.9874C62.0531 35.7621 63.1156 36.1498 64.4555 36.1504Z" fill="#00D2AB"/>
<path d="M80.5351 16.6468C80.1025 17.0877 79.5503 17.3081 78.8784 17.3081C78.2066 17.3081 77.6575 17.0877 77.231 16.6468C77.0202 16.4316 76.8545 16.175 76.7439 15.8926C76.6333 15.6102 76.5801 15.3078 76.5876 15.0038C76.5876 14.3274 76.8021 13.7678 77.231 13.325C77.6599 12.8822 78.2091 12.6618 78.8784 12.6636C79.5484 12.6636 80.1007 12.8759 80.5351 13.3004C80.9696 13.7249 81.186 14.2937 81.1841 15.0067C81.1914 15.3107 81.1375 15.613 81.0259 15.8951C80.9143 16.1771 80.7473 16.4329 80.5351 16.6468ZM77.2032 38.4009V20.6904C77.2032 20.6224 77.2163 20.555 77.2419 20.4922C77.2674 20.4294 77.3048 20.3723 77.352 20.3243C77.3992 20.2762 77.4552 20.2381 77.5168 20.212C77.5785 20.186 77.6445 20.1726 77.7112 20.1726H80.0456C80.1804 20.1726 80.3096 20.2272 80.4049 20.3243C80.5002 20.4214 80.5537 20.5531 80.5537 20.6904V38.4009C80.5534 38.5381 80.4998 38.6697 80.4046 38.7667C80.3094 38.8638 80.1803 38.9184 80.0456 38.9186H77.7112C77.5766 38.9184 77.4475 38.8638 77.3523 38.7667C77.257 38.6697 77.2034 38.5381 77.2032 38.4009Z" fill="#00D2AB"/>
<path d="M104.76 19.7276C106.909 19.7276 108.596 20.3704 109.821 21.6559C111.046 22.9414 111.659 24.7295 111.66 27.0203V38.4047C111.66 38.4727 111.647 38.54 111.621 38.6028C111.596 38.6657 111.558 38.7227 111.511 38.7708C111.464 38.8189 111.408 38.857 111.346 38.883C111.285 38.9091 111.219 38.9225 111.152 38.9225H108.818C108.683 38.9222 108.554 38.8675 108.459 38.7705C108.364 38.6734 108.311 38.5419 108.311 38.4047V27.2754C108.311 25.9344 107.948 24.8763 107.224 24.1009C106.5 23.3256 105.528 22.9382 104.308 22.9389C102.569 22.9389 101.214 23.6367 100.244 25.0325C100.169 25.1445 100.139 25.2822 100.162 25.4161C100.24 25.9458 100.276 26.4809 100.271 27.0165V38.4009C100.271 38.5382 100.217 38.6699 100.122 38.767C100.027 38.8641 99.8976 38.9187 99.7629 38.9187H97.4452C97.3104 38.9187 97.1812 38.8641 97.0859 38.767C96.9906 38.6699 96.9371 38.5382 96.9371 38.4009V27.2754C96.9371 25.9344 96.5722 24.8763 95.8422 24.1009C95.1123 23.3256 94.1435 22.9382 92.9358 22.9389C91.2442 22.9389 89.9244 23.5939 88.9763 24.904C88.9143 24.9938 88.8819 25.1013 88.8836 25.211V38.4009C88.8836 38.5382 88.8301 38.6699 88.7348 38.767C88.6395 38.8641 88.5103 38.9187 88.3755 38.9187H86.0578C85.9231 38.9187 85.7939 38.8641 85.6986 38.767C85.6033 38.6699 85.5498 38.5382 85.5498 38.4009V20.6903C85.5498 20.553 85.6033 20.4213 85.6986 20.3242C85.7939 20.2271 85.9231 20.1726 86.0578 20.1726H88.0844C88.2126 20.1725 88.336 20.2218 88.4299 20.3107C88.5238 20.3996 88.5813 20.5214 88.5906 20.6516C88.5977 20.7437 88.6288 20.8323 88.6807 20.9081C88.7326 20.9839 88.8034 21.0442 88.8858 21.0827C88.9683 21.1212 89.0593 21.1366 89.1495 21.1273C89.2398 21.1179 89.3259 21.0842 89.399 21.0295C90.5857 20.1641 92.0128 19.7314 93.6803 19.7314C95.7996 19.7314 97.4396 20.4242 98.6003 21.8099C98.6466 21.8663 98.7041 21.9122 98.769 21.9445C98.8339 21.9768 98.9047 21.9948 98.9769 21.9973C99.0491 21.9998 99.121 21.9867 99.1879 21.959C99.2548 21.9313 99.3152 21.8895 99.3651 21.8363C100.698 20.4312 102.497 19.7282 104.76 19.7276Z" fill="#00D2AB"/>
<path d="M119.32 39.3796C118.679 39.3796 118.154 39.1705 117.744 38.7523C117.333 38.3341 117.128 37.7959 117.128 37.1377C117.128 36.4802 117.333 35.9448 117.744 35.5317C118.154 35.1185 118.679 34.9122 119.32 34.9129C119.959 34.9129 120.485 35.1191 120.896 35.5317C121.307 35.9442 121.512 36.4796 121.511 37.1377C121.511 37.7965 121.312 38.3347 120.913 38.7523C120.515 39.1699 119.983 39.379 119.32 39.3796Z" fill="#00D2AB"/>
<path d="M138.551 20.1707H140.884C141.019 20.1707 141.148 20.2252 141.243 20.3223C141.339 20.4194 141.392 20.5511 141.392 20.6884V38.4008C141.392 38.5381 141.339 38.6698 141.243 38.7669C141.148 38.864 141.019 38.9185 140.884 38.9185H138.845C138.718 38.9187 138.597 38.8708 138.503 38.7843C138.41 38.6978 138.351 38.5789 138.339 38.4509L138.32 38.2506C138.311 38.1586 138.279 38.0706 138.226 37.9957C138.172 37.9209 138.1 37.862 138.017 37.8252C137.934 37.7885 137.843 37.7751 137.753 37.7866C137.663 37.7981 137.577 37.8341 137.506 37.8906C136.285 38.8833 134.797 39.3796 133.042 39.3796C130.965 39.3796 129.321 38.7246 128.108 37.4145C126.895 36.1044 126.289 34.3116 126.288 32.0359V20.6903C126.288 20.553 126.342 20.4213 126.437 20.3242C126.532 20.2271 126.661 20.1726 126.796 20.1726H129.148C129.283 20.1726 129.412 20.2271 129.507 20.3242C129.603 20.4213 129.656 20.553 129.656 20.6903V31.7771C129.656 33.1186 130.015 34.1828 130.733 34.9694C131.452 35.7561 132.432 36.1498 133.676 36.1504C135.628 36.1504 137.059 35.3738 137.968 33.8206C138.015 33.7397 138.04 33.6473 138.04 33.5532V20.6903C138.04 20.6219 138.053 20.5541 138.078 20.4909C138.104 20.4277 138.141 20.3703 138.189 20.322C138.236 20.2737 138.293 20.2354 138.355 20.2094C138.417 20.1835 138.484 20.1703 138.551 20.1707Z" fill="#888CB9"/>
<path d="M159.952 20.6903V23.0522C159.952 23.1722 159.911 23.2885 159.836 23.381L150.51 34.977C150.449 35.0528 150.411 35.1447 150.399 35.242C150.387 35.3393 150.403 35.4379 150.444 35.5265C150.485 35.615 150.55 35.6899 150.631 35.7423C150.713 35.7947 150.807 35.8225 150.903 35.8226H159.444C159.579 35.8226 159.708 35.877 159.803 35.9739C159.898 36.0708 159.952 36.2022 159.952 36.3393V38.4046C159.952 38.5418 159.898 38.6734 159.803 38.7704C159.708 38.8674 159.579 38.9221 159.444 38.9223H146.3C146.233 38.9223 146.167 38.9089 146.106 38.8829C146.044 38.8569 145.988 38.8188 145.941 38.7707C145.894 38.7226 145.856 38.6655 145.831 38.6027C145.805 38.5399 145.792 38.4726 145.792 38.4046V36.004C145.792 35.8838 145.833 35.7674 145.909 35.6752L155.3 24.0811C155.362 24.0054 155.402 23.9132 155.415 23.8154C155.427 23.7175 155.412 23.6181 155.371 23.5287C155.33 23.4393 155.264 23.3638 155.183 23.311C155.101 23.2583 155.006 23.2304 154.909 23.2308H146.3C146.165 23.2308 146.036 23.1762 145.941 23.0791C145.846 22.982 145.792 22.8504 145.792 22.713V20.6903C145.792 20.553 145.846 20.4213 145.941 20.3242C146.036 20.2271 146.165 20.1726 146.3 20.1726H159.444C159.579 20.1726 159.708 20.2271 159.803 20.3242C159.899 20.4213 159.952 20.553 159.952 20.6903Z" fill="#888CB9"/>
<path d="M43.8974 37.1056H42.5921C42.5143 37.1056 42.4512 37.1699 42.4512 37.2492V40.8941C42.4512 40.9734 42.5143 41.0377 42.5921 41.0377H43.8974C43.9752 41.0377 44.0383 40.9734 44.0383 40.8941V37.2492C44.0383 37.1699 43.9752 37.1056 43.8974 37.1056Z" fill="#00D2AB"/>
<path d="M49.3359 37.1056H48.0306C47.9527 37.1056 47.8896 37.1699 47.8896 37.2492V40.8941C47.8896 40.9734 47.9527 41.0377 48.0306 41.0377H49.3359C49.4137 41.0377 49.4768 40.9734 49.4768 40.8941V37.2492C49.4768 37.1699 49.4137 37.1056 49.3359 37.1056Z" fill="#00D2AB"/>
<path d="M43.8974 18.3407H42.5921C42.5143 18.3407 42.4512 18.405 42.4512 18.4843V21.8873C42.4512 21.9667 42.5143 22.0309 42.5921 22.0309H43.8974C43.9752 22.0309 44.0383 21.9667 44.0383 21.8873V18.4843C44.0383 18.405 43.9752 18.3407 43.8974 18.3407Z" fill="#00D2AB"/>
<path d="M49.3359 18.3407H48.0306C47.9527 18.3407 47.8896 18.405 47.8896 18.4843V21.8873C47.8896 21.9667 47.9527 22.0309 48.0306 22.0309H49.3359C49.4137 22.0309 49.4768 21.9667 49.4768 21.8873V18.4843C49.4768 18.405 49.4137 18.3407 49.3359 18.3407Z" fill="#00D2AB"/>
</svg>
