<svg width="100" height="100" viewBox="0 0 100 100" fill="none" xmlns="http://www.w3.org/2000/svg">
<path d="M46.6089 0.0130768C45.062 0.14724 43.5309 0.320862 42.426 0.486588C20.6829 3.81695 3.64351 20.9501 0.44715 42.7001C0.107783 45.0045 0.0288608 46.0462 0.00518406 48.7373C-0.00270819 50.1894 -0.00270819 51.2232 0.0130763 51.0259C0.0288608 50.8286 0.0841066 50.2052 0.13146 49.6449C0.431366 46.0541 1.15745 42.5422 2.3334 39.0303C4.20386 33.4114 6.95826 28.4947 10.8255 23.8385C11.9225 22.5206 15.0084 19.427 16.3816 18.2748C21.5826 13.9027 27.6675 10.6986 34.0602 8.96243C45.3225 5.90828 57.3187 7.16309 67.5944 12.4822C73.6399 15.6152 78.975 20.0899 83.15 25.5274C91.4921 36.3945 94.5622 50.4498 91.5395 63.9291C89.9374 71.1028 86.5674 77.8661 81.7294 83.6192C80.5772 84.9924 77.4834 88.0781 76.1654 89.1751C71.509 93.0421 66.5921 95.7964 60.9728 97.6667C57.4608 98.8426 53.9487 99.5687 50.3577 99.8685C49.7974 99.9159 49.1739 99.9711 48.9766 99.9869C48.7793 100.003 49.8132 100.003 51.2653 99.9948C53.9566 99.9711 54.9984 99.8922 57.3029 99.5529C69.4886 97.7614 80.5377 91.5663 88.4694 82.0724C94.3334 75.0566 98.1295 66.636 99.5186 57.5762C99.9447 54.7667 100 53.938 100 50C100 46.062 99.9447 45.2333 99.5186 42.4238C96.188 20.6818 79.054 3.64333 57.3029 0.447128C54.7774 0.07621 54.0355 0.028862 50.4367 0.00518799C48.5267 -0.00270844 46.8062 -0.00270844 46.6089 0.0130768Z" fill="white"/>
<path d="M42.8995 7.54979C27.9358 8.54416 14.5585 17.4067 7.77902 30.8307C4.01442 38.2885 2.53068 46.5671 3.48564 54.8535C5.06409 68.68 13.3588 80.8966 25.655 87.502C37.8327 94.0365 52.5754 94.218 64.9189 87.9834C74.3344 83.2247 81.69 75.0882 85.4703 65.247C87.3171 60.4251 88.3037 55.1376 88.2721 50.1736L88.2642 48.6979L88.1537 49.9605C87.4434 58.3022 84.397 65.7521 79.0618 72.1761C78.0674 73.3756 75.9444 75.5222 74.6659 76.635C68.3205 82.1277 60.6019 85.3791 52.1729 86.1131C50.3262 86.2709 46.309 86.2314 44.6358 86.0342C39.7979 85.4659 35.7413 84.2822 31.4952 82.1987C19.7358 76.4456 11.5594 65.0655 9.8389 52.0913C9.57056 50.0474 9.49164 48.4848 9.539 46.062C9.59424 43.1104 9.8389 41.027 10.4308 38.2806C11.4726 33.514 13.7377 28.3606 16.5789 24.32C17.3444 23.2388 17.6128 22.8836 17.5023 23.1283C17.3444 23.4518 16.9972 24.5725 16.8078 25.338C16.0343 28.5026 15.8054 32.6301 16.2632 35.0844C16.4684 36.1498 17.155 38.8804 17.5733 40.2773C19.57 46.9143 22.9716 52.3755 27.6675 56.5029C28.8987 57.5841 29.3407 57.9313 33.4131 61.0012C37.1619 63.8186 38.6062 64.9472 39.7821 65.9731C44.7384 70.282 47.0824 73.9833 48.1005 79.0814L48.3215 80.1863L48.5267 79.5155C49.3396 76.8875 49.7816 72.7601 49.608 69.4771C49.5606 68.6169 49.4738 67.4804 49.4107 66.9517C48.5583 60.0148 45.6224 53.504 40.7292 47.7508C40.2872 47.23 39.0402 45.8805 37.9669 44.7519C32.8764 39.417 29.5064 35.629 27.7464 33.2693C27.3676 32.7563 27.0361 32.2907 27.0124 32.2276C26.9256 32.0303 26.4837 32.6537 26.3021 33.2298C25.726 35.0529 26.5389 38.4464 28.291 41.5242C28.733 42.3055 29.2538 43.071 30.6508 45.0045C31.0454 45.549 31.1401 45.7384 31.1243 45.9278C31.1006 46.1646 31.0848 46.1725 30.6902 46.1961C29.0723 46.2908 25.6076 43.2604 23.2084 39.6617C22.0009 37.8387 20.7618 35.4474 20.1778 33.7902C19.5779 32.0934 19.3806 30.081 19.5306 27.311C19.7042 24.241 19.7279 23.0888 19.6253 22.5916C19.5148 22.0787 19.2386 21.6999 18.9071 21.613L18.6782 21.5499L19.57 20.5634C24.8105 14.7629 31.4716 10.6986 38.914 8.76513C41.2264 8.16535 43.2784 7.81811 45.8591 7.58924L47.043 7.48665H45.4645C44.5964 7.48665 43.4441 7.51822 42.8995 7.54979Z" fill="white"/>
<path d="M46.7036 20.011C44.4149 20.6108 42.7496 22.7968 42.7417 25.2038C42.7417 25.4327 42.7969 25.8904 42.868 26.2219C43.381 28.7236 45.5671 30.5072 48.1084 30.5072C50.5235 30.5072 52.6623 28.842 53.2779 26.4823C53.4594 25.7957 53.4673 24.5488 53.2857 23.878C52.7885 21.9603 51.2338 20.4135 49.3712 19.9794C48.653 19.8058 47.4218 19.8216 46.7036 20.011Z" fill="white"/>
<path d="M77.3098 21.8025C76.8126 22.2602 76.7494 23.0494 76.9625 26.2929C77.223 30.2704 76.9862 32.4091 76.0312 34.6504C74.8001 37.5388 73.2374 40.08 71.3433 42.266C69.1019 44.8466 66.5448 46.5592 65.5188 46.1646C65.4477 46.133 65.3925 46.0225 65.3925 45.8962C65.3925 45.6753 65.5898 45.3754 66.8131 43.7339C68.3679 41.6347 69.4965 39.3302 70.1121 36.9785C70.3646 36.0078 70.3883 35.8105 70.3962 34.7688C70.4041 33.5061 70.2778 32.9931 69.8358 32.417L69.6227 32.1329L69.4649 32.3617C67.5155 35.0844 64.3586 38.6831 58.7235 44.5941C56.0323 47.4115 55.03 48.5953 53.6015 50.5761C52.2519 52.4623 50.8865 54.8377 49.971 56.8817C49.0713 58.8862 49.1108 58.5153 49.6711 60.1963C50.7997 63.574 51.4232 67.1963 51.4232 70.3767C51.4232 71.0633 51.4469 71.6237 51.4863 71.6158C51.5179 71.6158 51.8336 71.2133 52.1888 70.7319C53.3805 69.1219 55.0221 67.441 57.2635 65.5548C58.5262 64.4815 60.1599 63.2188 64.0114 60.3225C67.8786 57.4104 68.5099 56.8975 70.041 55.4059C74.074 51.4679 76.8678 46.8354 78.762 40.9244C79.2907 39.2987 80.1747 35.7947 80.3562 34.6109C80.5219 33.585 80.5456 30.6729 80.3957 29.2839C80.0168 25.701 79.1408 22.6785 78.2411 21.8656C77.878 21.5341 77.6255 21.5183 77.3098 21.8025Z" fill="white"/>
<path d="M67.1287 26.7822C66.3553 27.9897 64.2007 29.4418 61.691 30.4677C59.7968 31.2332 57.9658 31.7383 55.172 32.2513C52.1334 32.8037 50.0893 33.3798 48.7319 34.0664L48.1084 34.3742L47.3744 34.0269C45.9222 33.3245 43.9886 32.78 41.2027 32.2828C37.6354 31.6436 35.2677 30.9175 32.8921 29.7259C31.1874 28.8735 29.7037 27.7292 29.0328 26.7585L28.7566 26.3639L28.7961 26.9164C28.9618 29.0156 30.5245 31.8803 32.8211 34.2637C34.3522 35.8578 35.7176 36.9627 38.2036 38.6121C39.9715 39.788 40.595 40.2851 41.6367 41.3663C44.2333 44.0574 46.2142 47.8692 47.3586 52.3676C47.6585 53.5513 48.0295 55.4769 48.0295 55.8557C48.0295 56.3135 48.1084 56.0294 48.3057 54.8298C49.1738 49.6843 51.3363 44.8861 54.1933 41.7451C55.3456 40.4746 56.1348 39.8353 58.3289 38.3832C62.1566 35.842 64.7374 33.2298 66.2527 30.3493C66.9393 29.0314 67.5154 27.1847 67.4286 26.5455C67.4049 26.3718 67.3734 26.3955 67.1287 26.7822Z" fill="white"/>
</svg>
